# xmcd
#
# Track frame offsets:
#	150
#	15773
#	34043
#	49349
#	69191
#	84819
#	117771
#	141648
#	161601
#	185070
#	214830
#	248008
#	268964
#	287585
#	314611
#
# Disc length: 4453 seconds
#
# Revision: 28
# Processed by: cddbd v1.4PL0 Copyright (c) Steve Scherf et al.
# Submitted via: CDmax 1.8
#
DISCID=d411630f
DTITLE=Eagles - Hell Frezes Over
DYEAR=2000
DGENRE=Rock and Roll
TTITLE0=Get Over It
TTITLE1=Love Will Keep Us Alive
TTITLE2=The Girl From Yesterday
TTITLE3=Learn To Be Still
TTITLE4=Tequila Sunrise
TTITLE5=Hotel California
TTITLE6=Wasted Time
TTITLE7=Pretty Maids All In A Row
TTITLE8=I Can't Tell You Why
TTITLE9=New York Minute
TTITLE10=The Last Resort
TTITLE11=Take It Easy
TTITLE12=In The City
TTITLE13=Life In The Fast Lane
TTITLE14=Desperado
EXTD=\n\nYEAR: 2000  ID3G:  78
EXTT0=
EXTT1=
EXTT2=
EXTT3=
EXTT4=
EXTT5=
EXTT6=
EXTT7=
EXTT8=
EXTT9=
EXTT10=
EXTT11=
EXTT12=
EXTT13=
EXTT14=
PLAYORDER=
